<svg version="1" xmlns="http://www.w3.org/2000/svg" width="933.333" height="933.333" viewBox="0 0 700.000000 700.000000"><path d="M391 61.2c-1.3 2.4-6 10.8-10.6 18.8-10 17.7-12.8 22.7-20 35.7-3.2 5.7-6 10.3-6.3 10.3-.7 0-2.2-2.2-5.9-8.9-1.4-2.5-8.2-14.7-15.2-27.1-7-12.4-13.9-24.5-15.3-27-1.3-2.4-2.9-4.5-3.3-4.7-.5-.2-2.2 1.8-3.9 4.5-1.6 2.6-11.2 17.5-21.4 33.2-10.1 15.7-19.5 30.3-20.9 32.5l-2.5 4v50.7l.1 50.8 10.3 14.2c5.6 7.9 16.3 22.6 23.6 32.8 40.8 56.6 47.3 65.7 48.7 67.5 1.4 1.8 1.5-3.1 1.6-49.8V247h-3.9c-3.9 0-3.9-.1-9.5-9.6-3.1-5.3-5.6-10.1-5.6-10.6s2.5-5.2 5.6-10.4l5.5-9.4 6.5-.1c3.5 0 7.8-.1 9.4-.1 8.6 0 7.4-1.1 16.2 15l2.9 5.3-5.8 10c-5.7 9.8-5.8 9.9-9.5 9.9-2.9 0-3.8.4-3.9 1.7-.3 7.3-.1 100.4.2 100.7.2.3 3.8-4.3 7.9-10.1 8.2-11.4 11.9-16.7 34.5-47.8 8.3-11.4 21-29 28.3-39.2l13.2-18.4v-102l-9.3-14.2c-5.1-7.8-11.9-18.3-15.1-23.2-3.1-5-9.9-15.4-15-23.3L393.4 57l-2.4 4.2zM150.5 213.2c-6.6 1.7-25.5 6.4-41.9 10.5-16.5 4-30.2 7.6-30.4 7.8-.5.4 2.6 4.4 8.7 11 2 2.2 8.3 9.4 14.1 16 5.8 6.6 11 12.5 11.5 13.1 4.9 5.4 13.7 15.4 15.4 17.5l2.1 2.7-9.3 1.7c-8.2 1.4-18.7 3.4-42.2 8-3.8.7-11.3 2.1-16.5 3.1-5.2.9-9.7 1.9-9.9 2-.3.3 7.9 11.4 13.4 17.9 1.3 1.6 2.8 3.4 3.3 4 .4.5 9.3 11.7 19.7 24.8l18.9 23.7 6 1.9c3.4 1.1 12 4 19.1 6.5 41.9 14.5 66.3 22.9 68.4 23.5 1.7.5 8.8-1.3 23-5.7 30.8-9.5 72.4-22.3 74.1-22.7 2.5-.6 41.5-12.7 41.8-12.9.1-.2-3.3-1.4-7.5-2.9-4.3-1.4-25.8-8.7-47.7-16.1-21.9-7.5-40.4-13.6-41-13.6-.7 0-1.6 1.5-2.1 3.2-1 3.3-1.1 3.3-12.4 5.6l-11.4 2.3-5.2-5.8c-2.9-3.2-6.3-7.2-7.7-8.8l-2.5-3 3.9-11.2c2.2-6.2 4.3-11.2 4.7-11.1.3.1 3.1-.4 6.2-1 3-.7 6.7-1.5 8.2-1.7 1.5-.3 3.8-.7 5.2-.9 2-.4 3.3.5 6.7 4.7 2.4 2.9 5.6 6.5 7.1 8.2 2.4 2.6 2.7 3.6 2.2 7.1-.5 3.4-.3 4.2 1.2 4.7 1 .3 5.6 1.9 10.3 3.6 4.7 1.6 18.4 6.4 30.5 10.6 12.1 4.2 26.5 9.2 32 11.2 14.4 5 21 7.1 21.3 6.8.3-.3-42.6-61.7-80.3-115.1-.5-.7-7.1-3.5-14.5-6-60.5-20.8-83.1-28.4-83.8-28.3-.4 0-6.1 1.5-12.7 3.1zM525.5 216.2c-32.1 11.3-72 25-74.2 25.5-1.2.3-3 1.5-4.1 2.7C445 246.8 365 360 365.4 360c.3 0 50.6-17.2 72.1-24.6 7.2-2.5 15.8-5.5 19.1-6.6l6.2-2.1-1.3-3.7c-1.5-4.1-2.4-2.6 10.7-17.2l3.3-3.8 10.5 2.1c5.8 1.2 10.9 2.5 11.3 2.9 1 .9 7.7 19 7.7 20.9 0 1.2-3.7 6-11.9 15.4-1.8 2-3.2 2.6-5 2.3-1.4-.2-6.8-1.2-11.8-2.2-9.2-1.8-9.3-1.8-9.9-5.1-.3-1.8-1.1-3.3-1.7-3.3-.8 0-79.4 26.4-93.1 31.2l-3.9 1.4 7.4 2.3c16.6 5.1 20.5 6.3 23.4 7.1 1.7.5 12.7 3.8 24.5 7.5 11.8 3.6 26.7 8.2 33 10.1 27.5 8.4 34.9 10.7 41.5 12.8l7 2.3 29-9.9c16-5.5 37.6-12.8 48-16.4 11.9-4.1 19.8-7.3 21.2-8.7 1.1-1.2 12.5-15.5 25.2-31.7 12.8-16.2 24.3-30.9 25.6-32.5 1.4-1.7 2.5-3.3 2.5-3.6 0-.3-2.8-1.1-6.2-1.7-12-2-66.3-12.2-69.1-13l-2.9-.7 2.2-2.5c5.6-6.6 24.3-27.8 29.5-33.6.6-.6 3.5-4 6.5-7.4 3-3.5 7.4-8.4 9.7-10.9 2.3-2.5 4.3-4.9 4.3-5.2 0-.5-19.2-5.8-27-7.4-.8-.2-4.2-1-7.5-1.8-3.3-.9-7.1-1.8-8.5-2.1-1.4-.2-10.8-2.6-21-5.1-10.2-2.6-19.6-4.8-21-5-1.4-.2-10.1 2.4-19.5 5.7zM338.5 377.4c-2.2.8-13.9 4.4-26 8.1-12.1 3.6-23.1 7-24.5 7.5-1.4.5-8.6 2.7-16 5-14.2 4.3-29.5 9.1-52 16.1l-13.5 4.2-14.7 19.6c-8.1 10.8-15.4 20.5-16.3 21.6-.8 1.1-8 10.6-15.9 21.1l-14.4 19-.6 9c-.4 4.9-.9 12.9-1.1 17.9-.3 4.9-.8 11.5-1 14.5-.3 3-.7 9.1-.9 13.5-.5 7.7-1.5 23-2.1 30.7-.1 2.1-.1 3.8 0 3.8.2 0 25.1-11 43-19 2.2-1 7.4-3.2 11.5-5 4.1-1.8 9.8-4.3 12.7-5.6 5.5-2.5 6.7-2.9 6-1.7-.3.5-.8 3.7-1.2 7.3-.3 3.6-.8 7.6-1 9-.1 1.4-.6 5-1 8-1.2 9.5-1.3 10.3-2 17.5-.4 3.8-.9 7.2-1 7.5-.2.3-.6 3.7-1 7.5-.4 3.9-.9 7.9-1.1 9-.2 1.1-.6 4.4-.9 7.4-.4 4-.2 5.2.7 4.9.7-.3 19.5-7.2 41.7-15.3l40.4-14.9 5.6-7.5c3.1-4.2 6.2-8.2 6.8-9.1.7-.8 12.1-15.9 25.3-33.4l24.1-31.9.4-32.1c.3-17.7.7-49.9 1-71.6.3-21.7.2-39-.3-38.5-.7.8-21.4 28.5-31.8 42.6-1 1.5-7.9 10.6-15.1 20.3-7.3 9.7-13.3 17.9-13.3 18.2 0 .3 1.2 1.5 2.6 2.7 2.8 2.2 2.8.9.8 18.9-.4 3.2-1.2 6.1-1.8 6.6-.6.5-5.4 2.7-10.7 4.9l-9.7 4-9.3-7.2c-5.2-3.9-9.3-7.6-9.2-8.1.1-.5.6-4.5 1.2-9 1.3-9 1.9-12.6 2.3-12.9.2-.2 3.2-1.5 6.8-3 3.6-1.4 8.1-3.4 10.1-4.2 3.5-1.4 3.8-1.4 6.8.8 1.7 1.2 3.2 2.1 3.4 1.8.9-1.2 34.2-45.8 35.7-47.9 23.4-31.3 25.5-34.1 24.8-34-.2.1-2.1.7-4.3 1.4zM365 376.6c0 .3 3.7 5.4 8.3 11.4 9.3 12.3 50.9 67.8 51.8 69.3.4.6 2 .1 3.8-1.2 3.5-2.5 3.2-2.6 15.6 2.8 10.2 4.4 9.6 3.3 10.9 19.2l.6 7.6-9.3 7-9.3 7-10.2-4.4c-10.6-4.7-10.8-4.9-11.6-12.3-.3-2.5-.8-6.9-1.2-9.9-.6-5.2-.5-5.6 2.4-8l3.1-2.6-14-18.5c-7.7-10.2-15-19.8-16.2-21.4-1.2-1.5-8.9-11.7-17-22.4l-14.9-19.7.6 35c.3 19.3.9 49.6 1.2 67.5.4 17.9.7 34.3.7 36.5 0 3.6 1.6 6.1 14.1 23 7.8 10.4 20.4 27.5 28.1 37.9 7.7 10.3 15.4 20.3 17 22.2 3 3.3 5.8 4.4 61 24.6 6.1 2.2 11.9 4.4 13 4.9 7.3 3.3 13.5 4.4 12.1 2-.3-.3-.7-2.7-1-5.1-.3-2.5-.7-6.1-1-8-.3-1.9-1-7.3-1.6-12-1.4-11.1-2-15.9-2.5-19-.2-1.4-.6-4.8-1-7.5-.3-2.8-1.2-9.5-1.9-15-.8-5.5-1.2-10.1-1.1-10.3.1-.1 2.6.9 5.6 2.2 3 1.3 16.9 7.5 30.9 13.6 14 6.2 27.3 12.1 29.5 13 5.2 2.4 7 2.8 6.8 1.5-.1-.6-.4-6.4-.8-13s-.8-13.6-1-15.5c-.2-1.9-.6-8.5-1-14.6-.3-6.1-.8-13-1-15.5-.2-2.4-.7-9.4-1-15.4-.4-6.1-.9-11.9-1.2-13-.3-1.1-3.4-5.8-6.9-10.5-3.5-4.7-7.2-9.6-8.1-10.9-23.1-31.2-45.8-60.8-47.1-61.3-.9-.4-7.5-2.5-14.7-4.7-9.9-3.1-86.5-26.5-108-33.1-1.6-.5-5.1-1.6-7.7-2.4-2.7-.8-4.8-1.2-4.8-1z"/></svg>