<?xml version="1.0" encoding="utf-8"?>
<!-- Generator: Adobe Illustrator 21.1.0, SVG Export Plug-In . SVG Version: 6.00 Build 0)  -->
<svg version="1.1" id="Camada_1" xmlns="http://www.w3.org/2000/svg" xmlns:xlink="http://www.w3.org/1999/xlink" x="0px" y="0px"
	 viewBox="0 0 1080 1080" style="enable-background:new 0 0 1080 1080;" xml:space="preserve">
<style type="text/css">
	.st0{fill:#FFFFFF;}
</style>
<g>
	<g>
		<g>
			<polygon class="st0" points="531.3,541.2 531.3,361.4 517.9,361.4 497.7,326.4 517.9,291.3 558.3,291.3 578.5,326.4 558.3,361.4 
				544.9,361.4 544.9,541.2 692,338.5 692,160.7 607.2,29.7 538.1,151.6 469,29.7 384.1,160.7 384.1,338.5 			"/>
		</g>
		<g>
			<g>
				<polygon class="st0" points="557.4,558.6 727.5,500.3 723.1,487.6 749.7,457.1 789.4,464.9 802.5,503.2 775.9,533.6 
					736.2,525.9 731.9,513.1 561.8,571.4 801.3,644.9 969.4,587.3 1065.9,464.5 928.2,438.7 1021.1,333.9 869.6,296 701.5,353.7 
									"/>
			</g>
			<g>
				<polygon class="st0" points="518.8,558.6 348.7,500.3 353.1,487.6 326.5,457.1 286.8,464.9 273.7,503.2 300.3,533.6 
					339.9,525.9 344.3,513.1 514.4,571.4 274.9,644.9 106.7,587.3 10.3,464.5 148,438.7 55.1,333.9 206.5,296 374.7,353.7 				"/>
			</g>
		</g>
		<g>
			<g>
				<polygon class="st0" points="556,585.3 663.8,729.2 674.6,721.2 711.7,737.1 716.6,777.2 684.2,801.5 647,785.6 642.2,745.4 
					653,737.4 545.1,593.4 548.9,843.9 655.5,986.2 802,1040.2 784.2,901.2 912.5,957.4 901.9,801.6 795.3,659.3 				"/>
			</g>
			<g>
				<polygon class="st0" points="520.2,585.3 412.4,729.2 401.6,721.2 364.4,737.1 359.6,777.2 392,801.5 429.2,785.6 434,745.4 
					423.2,737.4 531,593.4 527.3,843.9 420.7,986.2 274.2,1040.2 292,901.2 163.7,957.4 174.3,801.6 280.9,659.3 				"/>
			</g>
		</g>
	</g>
</g>
</svg>
