<svg xmlns="http://www.w3.org/2000/svg" id="Camada_1" version="1" viewBox="0 0 1080 1080">
  <style>
    .st0{fill:#ff2c3c}
  </style>
  <path d="M540 541V381h-12l-18-31 18-31h36l18 31-18 31h-12v160l130-180V204L607 88l-61 108-61-108-75 116v157zM563 556l151-52-4-11 23-27 35 7 12 34-23 27-36-7-3-11-151 51 212 65 149-51 85-108-122-23 82-93-134-33-148 51zM529 556l-150-52 3-11-23-27-35 7-12 34 24 27 35-7 4-11 150 51-212 65-148-51-86-108 122-23-82-93 134-33 149 51z" class="st0"/>
  <g>
    <path d="M562 580l95 127 10-7 33 14 4 35-29 22-32-14-5-36 10-7-96-127 4 221 94 126 130 48-16-123 113 50-9-138-94-126zM530 580l-95 127-10-7-32 14-5 35 29 22 33-14 4-36-9-7 95-127-3 221-95 126-129 48 15-123-113 50 9-138 95-126z" class="st0"/>
  </g>
</svg>
