<?xml version="1.0" encoding="utf-8"?>
<!-- Generator: Adobe Illustrator 22.1.0, SVG Export Plug-In . SVG Version: 6.00 Build 0)  -->
<svg version="1.1" id="Layer_1" xmlns="http://www.w3.org/2000/svg" xmlns:xlink="http://www.w3.org/1999/xlink" x="0px" y="0px"
	 viewBox="0 0 800 200" style="enable-background:new 0 0 800 200;" xml:space="preserve">
<style type="text/css">
	.st0{display:none;}
	.st1{display:none;fill:#999999;}
	.st2{display:none;fill:#B2B2B2;}
	.st3{display:none;fill:#727272;}
	.st4{fill:none;}
	.st5{fill:#EAEAEA;}
	.st6{font-family:'DDCHardware-Regular';}
	.st7{font-size:100px;}
</style>
<g id="_x30_ZX9zY_1_" class="st0">
	
		<image style="display:inline;overflow:visible;" width="480" height="480" id="_x30_ZX9zY" xlink:href="E353BDE97A31B5FA.jpg"  transform="matrix(0.5792 0 0 0.5792 106 -30)">
	</image>
</g>
<path class="st1" d="M180.3,85.7L146,26.6c-0.5-0.8-1.4-1.3-2.3-1.3H66.9c-1.5,0-2.7,1.2-2.7,2.7v109.9c0,2,2.2,3.3,3.9,2.4l9.7-5.1
	c0.9-0.5,1.4-1.4,1.4-2.4V42.9c0-1.5,1.2-2.7,2.7-2.7h54.8c0.9,0,1.8,0.5,2.3,1.3l22.9,39.1c0.2,0.4,0.6,0.7,1,1l13.8,7.8
	C179.1,90.8,181.7,88.1,180.3,85.7z"/>
<path class="st2" d="M182.9,101.9L89.3,48.5c-1.8-1-4,0.3-4,2.3v10.8c0,1,0.5,1.9,1.4,2.4l77.3,42.9c1.3,0.7,1.8,2.3,1.1,3.6
	l-26,48.2c-0.5,0.9-1.4,1.4-2.4,1.4H93c-0.5,0-0.9,0.1-1.3,0.3l-15.4,8.6c-2.4,1.4-1.5,5,1.3,5h67.1c1,0,1.9-0.5,2.4-1.4l37-67.3
	C184.7,104.3,184.2,102.7,182.9,101.9z"/>
<path class="st3" d="M152,110l-7.5-4c-0.8-0.4-1.8-0.4-2.6,0l-77.4,43c-1.3,0.7-2.9,0.3-3.6-1L34,101.6c-0.5-0.8-0.5-1.9,0-2.7
	l23.8-41c0.2-0.4,0.4-0.9,0.4-1.4V40c0-2.7-3.6-3.7-5-1.4L17.1,98.9c-0.5,0.9-0.5,1.9,0,2.8l39.8,66.3c0.8,1.3,2.4,1.7,3.7,0.9
	l91.6-54.2C153.9,113.6,153.9,111,152,110z"/>
<rect x="205" y="66" class="st4" width="489" height="121"/>
<text transform="matrix(1 0 0 1 205 133.499)" class="st5 st6 st7">COMPANY</text>
</svg>
