<?xml version="1.0" encoding="utf-8"?>
<!-- Generator: Adobe Illustrator 23.0.4, SVG Export Plug-In . SVG Version: 6.00 Build 0)  -->
<svg version="1.1" id="Layer_1" xmlns="http://www.w3.org/2000/svg" xmlns:xlink="http://www.w3.org/1999/xlink" x="0px" y="0px"
	 viewBox="0 0 800 144" style="enable-background:new 0 0 800 144;" xml:space="preserve">
<style type="text/css">
	.st0{display:none;}
	.st1{display:none;fill:#999999;}
	.st2{display:none;fill:#B2B2B2;}
	.st3{display:none;fill:#727272;}
	.st4{enable-background:new    ;}
	.st5{fill:#D4E9FC;}
</style>
<g id="_x30_ZX9zY_1_" class="st0">
</g>
<path class="st1" d="M180.3,77.7L146,18.6c-0.5-0.8-1.4-1.3-2.3-1.3H66.9c-1.5,0-2.7,1.2-2.7,2.7v109.9c0,2,2.2,3.3,3.9,2.4l9.7-5.1
	c0.9-0.5,1.4-1.4,1.4-2.4V34.9c0-1.5,1.2-2.7,2.7-2.7h54.8c0.9,0,1.8,0.5,2.3,1.3l22.9,39.1c0.2,0.4,0.6,0.7,1,1l13.8,7.8
	C179.1,82.8,181.7,80.1,180.3,77.7z"/>
<path class="st2" d="M182.9,93.9L89.3,40.5c-1.8-1-4,0.3-4,2.3v10.8c0,1,0.5,1.9,1.4,2.4L164,98.9c1.3,0.7,1.8,2.3,1.1,3.6l-26,48.2
	c-0.5,0.9-1.4,1.4-2.4,1.4H93c-0.5,0-0.9,0.1-1.3,0.3L76.3,161c-2.4,1.4-1.5,5,1.3,5h67.1c1,0,1.9-0.5,2.4-1.4l37-67.3
	C184.7,96.3,184.2,94.7,182.9,93.9z"/>
<path class="st3" d="M152,102l-7.5-4c-0.8-0.4-1.8-0.4-2.6,0l-77.4,43c-1.3,0.7-2.9,0.3-3.6-1L34,93.6c-0.5-0.8-0.5-1.9,0-2.7
	l23.8-41c0.2-0.4,0.4-0.9,0.4-1.4V32c0-2.7-3.6-3.7-5-1.4L17.1,90.9c-0.5,0.9-0.5,1.9,0,2.8L56.9,160c0.8,1.3,2.4,1.7,3.7,0.9
	l91.6-54.2C153.9,105.6,153.9,103,152,102z"/>
<g class="st4">
	<path class="st5" d="M96.7,88.4v28.9c0,3.6-1.3,6.7-3.9,9.1s-5.6,3.6-9.2,3.6h-56c-3.5,0-6.5-1.2-9-3.6s-3.7-5.5-3.7-9.1V31
		c0-3.4,1.2-6.4,3.7-8.8c2.5-2.5,5.5-3.7,9-3.7h56c3.5,0,6.6,1.2,9.2,3.7s3.9,5.4,3.9,8.8v28.7H67.9V44.1c0-0.5-0.2-1-0.5-1.3
		s-0.7-0.5-1-0.5h-21c-1.2,0-1.8,0.6-1.8,1.8v60.1c0,1.1,0.6,1.7,1.8,1.7h21c0.3,0,0.7-0.1,1-0.4s0.5-0.7,0.5-1.2V88.4H96.7z"/>
	<path class="st5" d="M193.6,18.5c3.9,0,7,1.2,9.4,3.6s3.6,5.6,3.6,9.4V117c0,3.9-1.2,7-3.6,9.4c-2.4,2.4-5.6,3.6-9.4,3.6h-57.3
		c-3.9,0-7-1.2-9.4-3.6s-3.6-5.6-3.6-9.4V31.5c0-3.9,1.2-7,3.6-9.4s5.6-3.6,9.4-3.6H193.6z M177.9,44.4c0-1.2-0.6-1.8-1.8-1.8h-22.6
		c-0.3,0-0.7,0.2-1,0.5s-0.5,0.8-0.5,1.3v60c0,0.4,0.2,0.8,0.5,1.1c0.3,0.3,0.7,0.4,1,0.4h22.6c1.2,0,1.8-0.5,1.8-1.5V44.4z"/>
	<path class="st5" d="M263.9,66.9V130h-26.4V18.5h29.1l22.5,52l20.7-52H340V130h-27.1V65.7L294.1,110h-11.2L263.9,66.9z"/>
	<path class="st5" d="M440,18.5c3.4,0,6.4,1.2,8.8,3.6c2.5,2.4,3.7,5.4,3.7,8.9v57.3c0,3.3-1.2,6.2-3.7,8.8
		c-2.5,2.5-5.4,3.8-8.8,3.8h-39.5V130h-28.7V18.5H440z M422.3,77.1c0.4,0,0.8-0.2,1.1-0.5c0.3-0.3,0.4-0.7,0.4-1V43.9
		c0-1.1-0.5-1.7-1.5-1.7h-21.8v34.9C400.5,77.1,422.3,77.1,422.3,77.1z"/>
	<path class="st5" d="M561.3,130h-28.7v-27.8h-25.3V130h-28.7V31.5c0-3.9,1.2-7,3.6-9.4s5.6-3.6,9.4-3.6h56.7c3.9,0,7,1.2,9.4,3.6
		s3.6,5.6,3.6,9.4V130z M532.5,78.1V44.6c0-1-0.4-1.8-1.1-2.4c-0.7-0.6-1.7-0.9-2.9-0.9h-17.8c-1,0-1.8,0.3-2.5,1s-1,1.4-1,2.3v33.5
		C507.2,78.1,532.5,78.1,532.5,78.1z"/>
	<path class="st5" d="M618.4,68.7V130H592V18.5h26.4L651.8,80V18.5h26.4V130H651L618.4,68.7z"/>
	<path class="st5" d="M732.8,130V97.3h-14.9c-3.4,0-6.4-1.3-8.8-3.9c-2.5-2.6-3.7-5.7-3.7-9.3V18.5h28.7v51.4c0,0.4,0.2,0.8,0.6,1.2
		c0.4,0.3,0.8,0.5,1.2,0.5h23c0.8,0,1.2-0.5,1.2-1.7V18.5h28.7v65.6c0,3.6-1.2,6.7-3.7,9.3c-2.5,2.6-5.4,3.9-8.8,3.9h-14.7V130
		H732.8z"/>
</g>
</svg>
